# File exported by ZBrush version 2020
# www.zbrush.com
#Vertex Count 929
#Face Count 896
#Auto scale x=1.000000 y=1.000000 z=1.000000
#Auto offset x=-0.000000 y=0.000000 z=0.000000
v 2.34075498 -0.5246796 -0.29884514
v 2.31925106 -0.985758 -0.30071282
v 2.32818341 -0.46205765 -0.09705171
v 2.29625392 -0.76885545 -0.02444187
v 2.32639026 -0.75879871 -0.29855462
v 2.34706592 -0.73722404 -0.58254939
v 2.35277223 -0.42630755 -0.49130249
v 2.32096362 -1.17274069 -0.3101696
v 2.3352971 -1.04334294 -0.48693943
v 2.30013155 -1.05447721 -0.12167553
v 2.20930147 -0.26010686 -0.25166449
v 2.21643662 -0.37791836 -0.55722403
v 2.21260738 -0.73384016 -0.68389493
v 2.20370221 -1.07855141 -0.57918685
v 2.18425917 -1.21574509 -0.30915418
v 2.14759588 -1.09408903 -0.01853602
v 2.13615632 -0.77671927 0.09980016
v 2.1781578 -0.42589128 0.02133041
v 2.34853315 -0.30119767 -0.28466698
v 2.33622765 -0.49549186 -0.20462974
v 2.31013155 -0.60745644 -0.03617623
v 2.31114888 -0.76750749 -0.14771653
v 2.33451104 -0.61999458 -0.29893454
v 2.32250118 -0.62100863 -0.15671333
v 2.34066534 -0.7487182 -0.45439201
v 2.35093236 -0.56573844 -0.56445324
v 2.34925627 -0.47787824 -0.3930166
v 2.34647393 -0.59739768 -0.44486182
v 2.32852244 -1.13557004 -0.39155423
v 2.32781815 -1.01490283 -0.38703766
v 2.31112027 -1.02145838 -0.21750865
v 2.31186604 -1.13788843 -0.22195474
v 2.32047128 -1.09206616 -0.30425435
v 2.32143402 -0.89481812 -0.30008044
v 2.29446768 -0.92632371 -0.05528945
v 2.30828762 -0.90988189 -0.16921201
v 2.34131431 -0.9057517 -0.5537675
v 2.33395695 -0.89731586 -0.43488341
v 2.21493721 -0.28310167 -0.41273921
v 2.21532774 -0.53716975 -0.65226721
v 2.20827436 -0.92320561 -0.65656721
v 2.32564353 -0.3871535 -0.54505246
v 2.32086658 -0.73035746 -0.65994465
v 2.32396841 -0.54049849 -0.63317954
v 2.31123471 -1.07020175 -0.5528469
v 2.3164227 -0.91673141 -0.62983107
v 2.19660234 -1.18198883 -0.45901364
v 2.16667246 -1.18362009 -0.14826583
v 2.29455566 -1.20543766 -0.30819305
v 2.30458331 -1.17206358 -0.43888747
v 2.26443934 -1.08447456 -0.04908843
v 2.27970266 -1.17468404 -0.16836601
v 2.13563633 -0.95290416 0.06324636
v 2.15420699 -0.59129798 0.08734402
v 2.25646901 -0.7713474 0.06246032
v 2.25573682 -0.94355469 0.02775831
v 2.29333758 -0.43514287 -0.01750996
v 2.27223539 -0.59450787 0.04881707
v 2.19756245 -0.31058284 -0.09947643
v 2.34259843 -0.35383287 -0.19921352
v 2.32059717 -0.26738473 -0.27030971
v 2.31050014 -0.31893798 -0.13435933
v 2.35204649 -0.33700999 -0.37867355
v 2.32484197 -0.29271498 -0.41160354
v 2.34787011 -0.40211647 -0.29647296
v 2.33888077 -0.51180517 -0.2588275
v 2.32953214 -0.55415213 -0.17529788
v 2.32836341 -0.62339884 -0.22637219
v 2.338238 -0.56252527 -0.29921719
v 2.33383202 -0.56193405 -0.23807838
v 2.33310627 -0.47846362 -0.14872975
v 2.3193221 -0.53129863 -0.06052635
v 2.31694269 -0.61504459 -0.09269605
v 2.32519006 -0.54321461 -0.11495511
v 2.30167985 -0.6875261 -0.02425282
v 2.30421781 -0.76865923 -0.08211315
v 2.31576633 -0.6933434 -0.14766027
v 2.30926299 -0.69116967 -0.08188311
v 2.31862735 -0.76432943 -0.2206082
v 2.33014655 -0.68748003 -0.29845652
v 2.32278966 -0.69247824 -0.2206721
v 2.3405981 -0.6110202 -0.37240684
v 2.34818339 -0.53209644 -0.42507398
v 2.34465932 -0.50414109 -0.33879095
v 2.34313035 -0.55082386 -0.36086201
v 2.33361482 -0.75398796 -0.37765401
v 2.34381628 -0.67108309 -0.45412799
v 2.33713674 -0.68050056 -0.37743407
v 2.34565734 -0.74286562 -0.5240184
v 2.34928321 -0.64943164 -0.58006447
v 2.35049724 -0.58164453 -0.51051235
v 2.34839963 -0.66027683 -0.52302587
v 2.35199165 -0.49053311 -0.53493899
v 2.35249948 -0.45130303 -0.44664576
v 2.35174465 -0.51118081 -0.48519736
v 2.32493042 -1.16138052 -0.34484523
v 2.32537913 -1.11583423 -0.35157233
v 2.3167541 -1.11787247 -0.2604888
v 2.31769418 -1.1613276 -0.27343252
v 2.32196593 -1.1426239 -0.30810889
v 2.33200478 -1.0961095 -0.44097811
v 2.33245873 -1.02948594 -0.43964344
v 2.32421183 -1.05826985 -0.34847784
v 2.3289144 -1.07841682 -0.39746248
v 2.32268285 -0.99936521 -0.33672648
v 2.31569504 -1.00263845 -0.26533728
v 2.31509637 -1.06116604 -0.25717371
v 2.31914949 -1.0336703 -0.30153155
v 2.30628585 -1.03884697 -0.1679461
v 2.30537271 -1.10223162 -0.16880154
v 2.31088757 -1.08359444 -0.21130743
v 2.31998205 -0.94998347 -0.30056643
v 2.31487655 -0.90149527 -0.23359516
v 2.30907607 -0.97092461 -0.18900322
v 2.31468343 -0.95859676 -0.24560861
v 2.32343459 -0.82935422 -0.2992697
v 2.30869627 -0.8408069 -0.15559288
v 2.31598925 -0.83528292 -0.22537802
v 2.29390645 -0.84945857 -0.03548308
v 2.30194878 -0.91826558 -0.10919243
v 2.30183291 -0.84539175 -0.09190521
v 2.2966485 -0.99545931 -0.08375741
v 2.3034749 -0.98345238 -0.13403953
v 2.33072519 -0.96114808 -0.41542035
v 2.32746648 -0.89445459 -0.36737975
v 2.32493448 -0.95320397 -0.35614901
v 2.33817935 -0.97942256 -0.52499806
v 2.33903574 -0.90125018 -0.49848836
v 2.33560252 -0.97005111 -0.47358471
v 2.34433794 -0.82413512 -0.57306349
v 2.33724451 -0.82558608 -0.44738841
v 2.34241962 -0.8246628 -0.51513218
v 2.33027911 -0.82674223 -0.37408542
v 2.21269297 -0.26244589 -0.33232659
v 2.21613574 -0.32168868 -0.48921492
v 2.21609306 -0.45070943 -0.61285215
v 2.21420407 -0.63373148 -0.67580735
v 2.21053934 -0.83162468 -0.6768642
v 2.20602703 -1.00621473 -0.62374949
v 2.28210163 -0.53511053 -0.65003436
v 2.32256031 -0.63322436 -0.65411096
v 2.27916789 -0.73089283 -0.67986118
v 2.28077197 -0.63085836 -0.67273157
v 2.28366971 -0.37722221 -0.55681741
v 2.32505488 -0.45755612 -0.59688925
v 2.28311133 -0.44958251 -0.61149191
v 2.34611702 -0.40410101 -0.52345895
v 2.34432625 -0.55119335 -0.60474836
v 2.34548354 -0.47175046 -0.57154101
v 2.34094452 -0.73260176 -0.6274873
v 2.34286189 -0.63974714 -0.62326294
v 2.31878471 -0.82633996 -0.65123671
v 2.27502322 -0.92218506 -0.65045321
v 2.27721571 -0.82945942 -0.6718297
v 2.33586955 -0.91088986 -0.59744703
v 2.33856892 -0.82445418 -0.61821425
v 2.33022809 -1.05719268 -0.52458304
v 2.3139193 -0.99875664 -0.59678006
v 2.3331263 -0.98914688 -0.56601691
v 2.27027058 -1.07985925 -0.57150888
v 2.27272558 -1.00640368 -0.61676132
v 2.20073127 -1.13797032 -0.52379512
v 2.19114947 -1.20843935 -0.38691633
v 2.17604684 -1.2071309 -0.22754891
v 2.15658259 -1.14563548 -0.07728496
v 2.26355624 -1.18464934 -0.45155504
v 2.30016517 -1.19790303 -0.37479189
v 2.25235319 -1.21845102 -0.30718153
v 2.25867533 -1.21113717 -0.38158348
v 2.30819034 -1.12895774 -0.49928724
v 2.26732707 -1.14025569 -0.51573461
v 2.32348537 -1.15451943 -0.41958677
v 2.32701373 -1.11323654 -0.47456246
v 2.31473588 -1.18803775 -0.30953696
v 2.31949734 -1.17985129 -0.36390098
v 2.28764247 -1.1974169 -0.23834137
v 2.23577523 -1.18658733 -0.1528546
v 2.24460244 -1.21004319 -0.22921755
v 2.30207228 -1.15711891 -0.19119614
v 2.30897665 -1.17961585 -0.25227579
v 2.2887063 -1.07013475 -0.08125229
v 2.27137923 -1.13673126 -0.10367362
v 2.29472231 -1.1203866 -0.13222065
v 2.21852827 -1.09463667 -0.0264066
v 2.22647905 -1.1477878 -0.08380644
v 2.14057445 -1.02956557 0.0279464
v 2.13360619 -0.86731499 0.08718483
v 2.14318037 -0.68365663 0.10018055
v 2.16634535 -0.50411355 0.06115356
v 2.20818686 -0.95067352 0.05371644
v 2.25425577 -0.85943031 0.0503133
v 2.20864081 -0.77379089 0.08947822
v 2.20634198 -0.86438643 0.07708893
v 2.25934982 -1.01956772 -0.00538692
v 2.21250629 -1.02849483 0.01916105
v 2.28161001 -0.93494737 -0.0089725
v 2.28447914 -1.00784599 -0.04012649
v 2.28288054 -0.76959168 0.02425504
v 2.28059792 -0.85416603 0.01248419
v 2.26252365 -0.68225479 0.06225258
v 2.22558426 -0.59089887 0.07565156
v 2.21515607 -0.68172359 0.08928533
v 2.29772663 -0.60015571 0.01145241
v 2.28862643 -0.6842218 0.02424079
v 2.31735158 -0.44715419 -0.05268776
v 2.28293705 -0.51103508 0.02227179
v 2.30769801 -0.52006912 -0.0142314
v 2.24827981 -0.42681416 0.00836192
v 2.23708987 -0.50478202 0.0487479
v 2.18875622 -0.36059987 -0.03338257
v 2.20439648 -0.27681767 -0.17302681
v 2.30273079 -0.36994248 -0.07132373
v 2.26676249 -0.30874103 -0.11268308
v 2.25837397 -0.36035829 -0.0468308
v 2.33614993 -0.4020366 -0.14543446
v 2.3331387 -0.33465895 -0.16263122
v 2.32603788 -0.38426518 -0.10400309
v 2.3470788 -0.31913578 -0.24946785
v 2.3417809 -0.28400835 -0.27877533
v 2.31649446 -0.28417447 -0.20159567
v 2.33842086 -0.30040848 -0.22208277
v 2.27790546 -0.25660842 -0.26066064
v 2.27330994 -0.27372935 -0.18480013
v 2.28273654 -0.28110086 -0.4154663
v 2.32561731 -0.33168038 -0.48165118
v 2.28361296 -0.32053941 -0.49003082
v 2.32322502 -0.27089014 -0.34013849
v 2.28089618 -0.25949913 -0.337924
v 2.35079383 -0.31209245 -0.32406768
v 2.34536171 -0.3120552 -0.40013322
v 2.343966 -0.28935489 -0.33692359
v 2.35274148 -0.37494561 -0.43715506
v 2.34607148 -0.35044828 -0.46443313
v 2.3461833 -0.37561783 -0.24482773
v 2.35148549 -0.36652594 -0.34287563
v 2.3501048 -0.33940562 -0.29115715
v 2.34251356 -0.44507187 -0.24720984
v 2.34029841 -0.42215073 -0.19424724
v 2.34893584 -0.43543922 -0.34834307
v 2.34408426 -0.47156837 -0.29840457
v 2.35230207 -0.40328824 -0.39727398
v 2.33999466 -0.51895117 -0.28211084
v 2.3363645 -0.53544986 -0.24660676
v 2.33601498 -0.56353396 -0.26878923
v 2.33969736 -0.53985172 -0.29902628
v 2.33799266 -0.53941994 -0.27329269
v 2.33760905 -0.50387811 -0.23254323
v 2.33292532 -0.52376312 -0.18839648
v 2.33166766 -0.55864787 -0.20668953
v 2.33466744 -0.53008073 -0.21795378
v 2.32603955 -0.58669281 -0.16477164
v 2.32537293 -0.62280923 -0.19100703
v 2.33115601 -0.59143066 -0.23139911
v 2.32855725 -0.58969706 -0.19776809
v 2.33145332 -0.62243139 -0.26242989
v 2.3364973 -0.58955484 -0.29915252
v 2.33382511 -0.59146666 -0.26519507
v 2.33477401 -0.48696902 -0.1764588
v 2.32921505 -0.50985741 -0.13033148
v 2.327425 -0.54892504 -0.14457862
v 2.33115744 -0.51694846 -0.15899758
v 2.33107471 -0.47013109 -0.12214199
v 2.32383298 -0.49566644 -0.07723451
v 2.32265973 -0.53727257 -0.08685076
v 2.32694268 -0.50271266 -0.10297265
v 2.3147211 -0.56869596 -0.04681808
v 2.31391358 -0.61133152 -0.0634106
v 2.32107138 -0.57840305 -0.10240044
v 2.3182857 -0.57360863 -0.07364405
v 2.31974554 -0.61834579 -0.12386998
v 2.3235979 -0.5828467 -0.13287936
v 2.31291461 -0.65275609 -0.08587053
v 2.31251382 -0.69254028 -0.11379799
v 2.31899476 -0.65671837 -0.15101859
v 2.3159635 -0.65504926 -0.11752067
v 2.30568385 -0.64717221 -0.02866733
v 2.30582857 -0.68941527 -0.051995
v 2.30966401 -0.65004569 -0.05620848
v 2.2986629 -0.72813111 -0.02289412
v 2.30058598 -0.76877945 -0.05223199
v 2.30647873 -0.72985452 -0.08069302
v 2.30292391 -0.72903847 -0.05072745
v 2.30767774 -0.76827544 -0.11395451
v 2.31325101 -0.73035037 -0.14661124
v 2.30985975 -0.73034328 -0.11266849
v 2.32550597 -0.65729183 -0.22280088
v 2.32651305 -0.69036161 -0.25918811
v 2.33233904 -0.65289294 -0.2986654
v 2.32895422 -0.65563589 -0.26041349
v 2.31919431 -0.69339817 -0.18339057
v 2.32217669 -0.65755969 -0.18622395
v 2.31480264 -0.76623731 -0.18335966
v 2.32057571 -0.72828161 -0.21997283
v 2.31682586 -0.72972309 -0.18247863
v 2.32257866 -0.76165282 -0.25918638
v 2.32822036 -0.72295135 -0.29841917
v 2.32445669 -0.72584933 -0.25879597
v 2.3405478 -0.55798363 -0.32975721
v 2.34401083 -0.52566152 -0.35173478
v 2.34240388 -0.51573538 -0.31545549
v 2.34168386 -0.53459483 -0.32482224
v 2.33743977 -0.61617308 -0.33564052
v 2.34200596 -0.57946175 -0.36762163
v 2.33913421 -0.58544319 -0.33326807
v 2.3436923 -0.60463923 -0.40909248
v 2.34745335 -0.56349372 -0.43639448
v 2.34575653 -0.54199302 -0.39298427
v 2.34485912 -0.5719816 -0.40229302
v 2.3487432 -0.50354069 -0.41066318
v 2.34703421 -0.4913088 -0.36521154
v 2.34645032 -0.51508331 -0.380818
v 2.33350229 -0.68426406 -0.33799523
v 2.33893704 -0.64492625 -0.37561097
v 2.33551454 -0.64936095 -0.33716023
v 2.32981967 -0.75635767 -0.33817327
v 2.33539891 -0.71704012 -0.37807637
v 2.33164954 -0.72010982 -0.33831355
v 2.33732962 -0.75143832 -0.41660845
v 2.3423109 -0.70969647 -0.45528453
v 2.3406682 -0.67604821 -0.41640299
v 2.33904933 -0.7135384 -0.41730493
v 2.34524154 -0.63345307 -0.45071339
v 2.34226656 -0.63953506 -0.41373065
v 2.34645938 -0.66576546 -0.4898352
v 2.34954595 -0.62018328 -0.51829528
v 2.34881448 -0.58965003 -0.47887933
v 2.34773659 -0.62693089 -0.48575323
v 2.34350681 -0.74581879 -0.4903599
v 2.34711289 -0.70136845 -0.52487069
v 2.34506392 -0.70558869 -0.49130049
v 2.34698677 -0.73997533 -0.55487382
v 2.34824895 -0.69312536 -0.58289104
v 2.34948325 -0.65479153 -0.55320149
v 2.34831786 -0.69718068 -0.55551278
v 2.3501842 -0.60677629 -0.57394933
v 2.35134315 -0.57362258 -0.53912842
v 2.35050296 -0.61341834 -0.54778438
v 2.35025811 -0.52172964 -0.45608151
v 2.35212397 -0.47983983 -0.46747779
v 2.35115027 -0.46447473 -0.4205054
v 2.35071396 -0.491703 -0.43986159
v 2.35122537 -0.54521054 -0.499511
v 2.34965062 -0.55447781 -0.46903809
v 2.35151958 -0.52689522 -0.55148404
v 2.35244393 -0.50073117 -0.51161217
v 2.35198497 -0.53596186 -0.52710026
v 2.35240769 -0.45692881 -0.51471519
v 2.35317802 -0.43855088 -0.47040522
v 2.35280871 -0.46820679 -0.49257642
v 2.32303118 -1.16903781 -0.3248803
v 2.32392907 -1.15238153 -0.32844501
v 2.32010054 -1.15248799 -0.28925517
v 2.31992936 -1.16885292 -0.29514902
v 2.3221488 -1.16119802 -0.30965939
v 2.32675457 -1.15020334 -0.36739674
v 2.32731604 -1.12599563 -0.37286901
v 2.32369232 -1.13046872 -0.32914355
v 2.32563257 -1.14067101 -0.3498311
v 2.32308554 -1.10466122 -0.32837161
v 2.31865572 -1.10586929 -0.28198573
v 2.31954312 -1.13126361 -0.28505986
v 2.32134699 -1.11901748 -0.30617368
v 2.31463527 -1.12826705 -0.24037024
v 2.31495285 -1.15106856 -0.24856001
v 2.3175528 -1.14161527 -0.26570278
v 2.33027315 -1.1175425 -0.41633731
v 2.33079719 -1.08745229 -0.42026013
v 2.32712411 -1.09853243 -0.37460827
v 2.32904171 -1.10828292 -0.39661002
v 2.33370542 -1.07126271 -0.46470889
v 2.33424234 -1.03646922 -0.46429544
v 2.33072996 -1.05534267 -0.41934594
v 2.33256578 -1.06342411 -0.44302508
v 2.33030414 -1.02232122 -0.41357535
v 2.32608842 -1.03784692 -0.36881586
v 2.32671189 -1.06877887 -0.37321528
v 2.32856369 -1.0468719 -0.39428654
v 2.32233047 -1.07627177 -0.32668784
v 2.32487845 -1.08797884 -0.35098123
v 2.32163953 -1.04659664 -0.32420948
v 2.31714606 -1.04811596 -0.27998399
v 2.31776189 -1.07761538 -0.28020778
v 2.31970429 -1.06303632 -0.30268701
v 2.3252232 -1.0071361 -0.36097675
v 2.32105279 -1.01768815 -0.3208363
v 2.32353019 -1.02807724 -0.34390294
v 2.32049155 -0.99191927 -0.31562078
v 2.31773304 -0.9933604 -0.28591311
v 2.31702423 -1.01938927 -0.28156545
v 2.31894898 -1.00679159 -0.30090463
v 2.31346011 -1.0121057 -0.24214938
v 2.3127501 -1.04256176 -0.23609378
v 2.31493115 -1.03134143 -0.25958403
v 2.31382226 -1.10200452 -0.23558652
v 2.30847907 -1.09315908 -0.18945513
v 2.30862665 -1.12159442 -0.19504006
v 2.3115642 -1.11211824 -0.21462553
v 2.3130517 -1.07296109 -0.23408091
v 2.31584405 -1.09055423 -0.25764411
v 2.30876517 -1.03039264 -0.19257441
v 2.30823516 -1.06256246 -0.18860587
v 2.31055545 -1.05296516 -0.21222819
v 2.3035655 -1.04676044 -0.14422312
v 2.30239486 -1.07983148 -0.14422479
v 2.30566978 -1.07136631 -0.16584548
v 2.31948971 -0.97152537 -0.30064618
v 2.31742954 -0.95321035 -0.27322173
v 2.31498885 -0.98234719 -0.25387334
v 2.31733989 -0.97541236 -0.2776671
v 2.32063555 -0.92411029 -0.30037462
v 2.31825017 -0.89760553 -0.26667672
v 2.31465458 -0.93146318 -0.23897832
v 2.31773996 -0.92701476 -0.26963216
v 2.31154012 -0.90563213 -0.20100235
v 2.30852913 -0.94159281 -0.17820039
v 2.31187892 -0.96460598 -0.2173534
v 2.31156778 -0.9363991 -0.20837339
v 2.30993628 -0.99756127 -0.20195888
v 2.3124938 -0.9898498 -0.22834229
v 2.32236909 -0.86301773 -0.29969364
v 2.3197999 -0.83210945 -0.26200908
v 2.31532049 -0.86924219 -0.22907181
v 2.31893849 -0.86576122 -0.26413369
v 2.32471108 -0.79445511 -0.29886406
v 2.31699752 -0.80017346 -0.22248336
v 2.32093405 -0.79725664 -0.26030868
v 2.30951356 -0.80448985 -0.15082114
v 2.3122735 -0.83817535 -0.18982781
v 2.31317639 -0.80255782 -0.18590515
v 2.30833888 -0.87610727 -0.16169968
v 2.3117733 -0.8727079 -0.19484035
v 2.30526804 -0.84320133 -0.12290773
v 2.3017013 -0.88254833 -0.09964199
v 2.30513882 -0.91411364 -0.13853776
v 2.30503153 -0.87939333 -0.12991021
v 2.30253529 -0.80732673 -0.08595641
v 2.30602169 -0.80605334 -0.11747838
v 2.29452109 -0.80944979 -0.0287467
v 2.29821872 -0.84741407 -0.06271828
v 2.298877 -0.80839103 -0.05633474
v 2.29396271 -0.88860124 -0.0443255
v 2.29856228 -0.92227774 -0.08138891
v 2.29818368 -0.88555771 -0.07106511
v 2.30631589 -0.97724038 -0.16110527
v 2.30473208 -1.01244068 -0.1497924
v 2.30738735 -1.00512361 -0.17560803
v 2.30254292 -0.95198035 -0.12058225
v 2.30556631 -0.94681644 -0.14884232
v 2.2953751 -0.96203643 -0.06839042
v 2.3004179 -0.98946112 -0.108186
v 2.29931449 -0.95699638 -0.09370332
v 2.29824757 -1.02631104 -0.10151942
v 2.30184698 -1.01941871 -0.12501461
v 2.32380008 -0.97791469 -0.34803032
v 2.32221102 -0.95045381 -0.3280164
v 2.32140231 -0.97316104 -0.32373312
v 2.3291974 -0.98935347 -0.40247893
v 2.32786965 -0.95690131 -0.38554176
v 2.32649493 -0.98344945 -0.37464034
v 2.33233237 -0.93036752 -0.42614251
v 2.33082127 -0.89564645 -0.40132594
v 2.32616901 -0.925206 -0.36248374
v 2.32932925 -0.9275031 -0.3943293
v 2.32419848 -0.89399021 -0.33363971
v 2.32314968 -0.9238072 -0.33124533
v 2.33394765 -1.00103211 -0.45773971
v 2.33337569 -0.96553093 -0.4450103
v 2.33175802 -0.99520182 -0.43046209
v 2.33670258 -1.01269209 -0.5070796
v 2.33732438 -0.97469526 -0.50041627
v 2.33570718 -1.00686347 -0.48346182
v 2.33974409 -0.94370025 -0.54056382
v 2.34068822 -0.90343809 -0.52741742
v 2.33731937 -0.93672782 -0.48712834
v 2.33901119 -0.94015461 -0.515051
v 2.33676219 -0.89919459 -0.46745729
v 2.3350656 -0.93345183 -0.45728385
v 2.34074258 -0.86379325 -0.50778257
v 2.34014463 -0.82509565 -0.48222774
v 2.33559656 -0.86228108 -0.44188088
v 2.33845996 -0.86297506 -0.47570535
v 2.34285354 -0.86579304 -0.56459999
v 2.34395766 -0.82433068 -0.54555618
v 2.34234499 -0.86472737 -0.53756725
v 2.34574818 -0.78108739 -0.57916009
v 2.34406161 -0.78416156 -0.52065819
v 2.34551096 -0.78255444 -0.55144006
v 2.33892583 -0.78754586 -0.45165935
v 2.3418262 -0.78585314 -0.4872241
v 2.32883882 -0.86147075 -0.37118229
v 2.32663035 -0.82771658 -0.3367086
v 2.32536172 -0.86176484 -0.33541923
v 2.33391952 -0.82608062 -0.41115981
v 2.33235359 -0.86170822 -0.40685471
v 2.3318386 -0.79074519 -0.37628316
v 2.33555936 -0.789146 -0.4144856
v 2.32806873 -0.79241603 -0.33763247
v 2.21115851 -0.2589173 -0.29188191
v 2.21395015 -0.27051761 -0.37277126
v 2.21566033 -0.30016675 -0.45175367
v 2.21638321 -0.3476423 -0.52452319
v 2.21632957 -0.41240784 -0.58686274
v 2.21575665 -0.49242252 -0.63460475
v 2.21480846 -0.58457511 -0.66598594
v 2.21347498 -0.6837356 -0.68177759
v 2.21161675 -0.78329539 -0.68215733
v 2.20941519 -0.87835228 -0.66831505
v 2.20714688 -0.96591264 -0.64167803
v 2.20490622 -1.04385328 -0.60288363
v 2.25043129 -0.6314308 -0.67736911
v 2.28001642 -0.68071514 -0.67823332
v 2.248806 -0.73227816 -0.6850776
v 2.24967193 -0.68173247 -0.68317884
v 2.25172925 -0.53464543 -0.65398681
v 2.28146672 -0.58205127 -0.66333824
v 2.25111413 -0.5821132 -0.66764682
v 2.30602812 -0.5370894 -0.64307749
v 2.32328844 -0.5859496 -0.64554363
v 2.30465698 -0.63148111 -0.66496652
v 2.30536961 -0.58335721 -0.6559534
v 2.32176303 -0.68159657 -0.65889692
v 2.30302763 -0.73026329 -0.67148041
v 2.30388832 -0.68068945 -0.67013192
v 2.25269746 -0.44818323 -0.61462277
v 2.28265404 -0.49085491 -0.63280093
v 2.25225997 -0.48989516 -0.63636338
v 2.25323128 -0.37519407 -0.55894249
v 2.28345608 -0.41159316 -0.5859611
v 2.25302839 -0.40983176 -0.588611
v 2.30765175 -0.38124382 -0.5521723
v 2.32541704 -0.42063334 -0.57271099
v 2.30707407 -0.45273602 -0.6055566
v 2.30742979 -0.41522425 -0.58064031
v 2.32456684 -0.49760523 -0.61700344
v 2.30660128 -0.49345338 -0.62632376
v 2.33751201 -0.4639588 -0.58556222
v 2.34494328 -0.51014697 -0.59002959
v 2.33637619 -0.54525637 -0.62040364
v 2.33699631 -0.50323081 -0.60491132
v 2.33810782 -0.39484623 -0.53550285
v 2.34588861 -0.43630233 -0.54916548
v 2.33788418 -0.42772907 -0.56223565
v 2.35071611 -0.41470453 -0.50885629
v 2.34999394 -0.48074001 -0.55479091
v 2.35043335 -0.44615933 -0.53345179
v 2.34887743 -0.55814248 -0.58621239
v 2.34947085 -0.51816469 -0.57234048
v 2.3349452 -0.63601493 -0.64020186
v 2.34196543 -0.68597251 -0.62712895
v 2.33315157 -0.73114621 -0.64526319
v 2.3341043 -0.68338036 -0.64455032
v 2.34364056 -0.59460663 -0.61581438
v 2.33568811 -0.58974677 -0.63216006
v 2.34734749 -0.64431935 -0.60331773
v 2.34817886 -0.60039496 -0.59651839
v 2.345299 -0.73469859 -0.60666829
v 2.34639096 -0.68930637 -0.60666948
v 2.27823042 -0.78065955 -0.6776328
v 2.24680542 -0.83133816 -0.67744076
v 2.24784374 -0.78232502 -0.68306636
v 2.31987166 -0.77879411 -0.65729755
v 2.30104184 -0.82777541 -0.66309607
v 2.30207681 -0.77948004 -0.66904282
v 2.31762528 -0.87242692 -0.64204311
v 2.29879379 -0.91958689 -0.64162379
v 2.27614021 -0.8767361 -0.66273319
v 2.29993987 -0.87458318 -0.65391719
v 2.24458909 -0.92437148 -0.65632307
v 2.24571251 -0.87878334 -0.66849589
v 2.33980703 -0.778952 -0.62441271
v 2.33093261 -0.82521098 -0.63624829
v 2.33209061 -0.77861225 -0.64239829
v 2.34276437 -0.82413792 -0.59721773
v 2.34408092 -0.77983373 -0.60340881
v 2.33990716 -0.90822792 -0.57706159
v 2.3372457 -0.86854034 -0.60920071
v 2.34136581 -0.86704069 -0.58842158
v 2.32841205 -0.913778 -0.61507117
v 2.32969355 -0.87037456 -0.62710613
v 2.33449268 -0.9511789 -0.58302784
v 2.3257935 -0.99406802 -0.58270537
v 2.3151915 -0.95893305 -0.61471468
v 2.32711839 -0.95509803 -0.60024297
v 2.33698988 -0.98425346 -0.54682302
v 2.33843064 -0.94738137 -0.56317877
v 2.33411788 -1.05028998 -0.50698357
v 2.33172154 -1.02454555 -0.54648774
v 2.33558535 -1.01860833 -0.52804416
v 2.32297301 -1.06394338 -0.53989338
v 2.31260871 -1.03592431 -0.57611298
v 2.32441592 -1.03042054 -0.56254226
v 2.2738862 -0.96550113 -0.6350997
v 2.24232435 -1.00883281 -0.62266832
v 2.24346184 -0.96781325 -0.64101392
v 2.29640817 -1.00295746 -0.60813194
v 2.29761719 -0.96247196 -0.62633347
v 2.29385328 -1.07563352 -0.56337642
v 2.27153635 -1.04461228 -0.59552687
v 2.29516625 -1.04076194 -0.58710509
v 2.23993086 -1.08250045 -0.57727181
v 2.24116778 -1.0471549 -0.6013863
v 2.20233249 -1.11003232 -0.55276566
v 2.1988244 -1.16204094 -0.49245053
v 2.19404959 -1.19756126 -0.42376631
v 2.18788266 -1.21430718 -0.34867158
v 2.18031334 -1.21332943 -0.2684865
v 2.17148399 -1.19721591 -0.18722188
v 2.16166472 -1.16637718 -0.11144116
v 2.15170645 -1.12152934 -0.04633434
v 2.2279253 -1.21419751 -0.38410431
v 2.25570344 -1.21699357 -0.34491789
v 2.22129631 -1.22138071 -0.30716764
v 2.2248013 -1.22001051 -0.34623241
v 2.23306751 -1.18762457 -0.45590722
v 2.26127553 -1.20026254 -0.41718512
v 2.23066687 -1.20330333 -0.420724
v 2.28720283 -1.17926144 -0.4459486
v 2.30249929 -1.18724691 -0.40718585
v 2.28256177 -1.20546627 -0.3785628
v 2.28502655 -1.19468951 -0.41275197
v 2.29752397 -1.2038058 -0.34186953
v 2.27657938 -1.21288073 -0.30757713
v 2.27974939 -1.21133959 -0.34353637
v 2.23698425 -1.14303982 -0.52108538
v 2.26556181 -1.16458022 -0.48452553
v 2.23516345 -1.16746091 -0.48946958
v 2.26888132 -1.11187827 -0.5448203
v 2.23855447 -1.114591 -0.5504288
v 2.30976963 -1.10135567 -0.5271151
v 2.290874 -1.13539624 -0.50850284
v 2.29243278 -1.10732007 -0.53706908
v 2.30647063 -1.1525805 -0.46973297
v 2.28914094 -1.15943694 -0.47799745
v 2.31984615 -1.12143766 -0.48798498
v 2.32529568 -1.13581121 -0.44742119
v 2.31628394 -1.16365802 -0.43017131
v 2.31812977 -1.14456021 -0.45957973
v 2.328655 -1.08689391 -0.5004456
v 2.32145476 -1.094424 -0.51489859
v 2.33084487 -1.10475742 -0.45898622
v 2.33251667 -1.07913649 -0.48378238
v 2.32734799 -1.14512562 -0.40692064
v 2.32912445 -1.12677013 -0.43314069
v 2.31208491 -1.18916368 -0.37002033
v 2.31722736 -1.18609333 -0.33678337
v 2.30688023 -1.19688785 -0.30886802
v 2.30962491 -1.19514811 -0.33969873
v 2.32156801 -1.16926324 -0.39162439
v 2.31428575 -1.17859649 -0.40024799
v 2.32356858 -1.17057061 -0.35608658
v 2.32550811 -1.15977394 -0.38100093
v 2.31930613 -1.17969334 -0.31013494
v 2.32149839 -1.17736959 -0.33288276
v 2.24864149 -1.21612608 -0.268368
v 2.2132399 -1.21272718 -0.22647815
v 2.21743273 -1.21894323 -0.26696932
v 2.29125213 -1.20328092 -0.27353698
v 2.2692132 -1.20471251 -0.23318764
v 2.27305507 -1.2106601 -0.27058959
v 2.2837677 -1.1879251 -0.20304626
v 2.26080632 -1.181625 -0.15969367
v 2.24029135 -1.20022308 -0.19047063
v 2.2651062 -1.19506979 -0.19598516
v 2.2040677 -1.18899512 -0.14788907
v 2.20876431 -1.20275628 -0.18653495
v 2.31199932 -1.18573391 -0.28142717
v 2.30048632 -1.1888349 -0.24463164
v 2.30383157 -1.19472134 -0.27711305
v 2.31435084 -1.17040848 -0.26149109
v 2.3169682 -1.17706978 -0.28658872
v 2.30801057 -1.14757132 -0.205567
v 2.30563664 -1.17011642 -0.22190478
v 2.31132245 -1.16061866 -0.2340891
v 2.29304766 -1.16633582 -0.1788313
v 2.2968657 -1.17941272 -0.21162164
v 2.29839277 -1.14050304 -0.16103202
v 2.28521847 -1.1289879 -0.11688895
v 2.27553224 -1.15757024 -0.13501495
v 2.28912568 -1.14948213 -0.14700903
v 2.30111217 -1.11138796 -0.1496241
v 2.3045628 -1.13113188 -0.17710894
v 2.29550218 -1.06234204 -0.10057343
v 2.29134321 -1.09687233 -0.1055703
v 2.29794359 -1.08841276 -0.12402159
v 2.27875566 -1.07763814 -0.06404761
v 2.26752424 -1.11230135 -0.07502255
v 2.2816081 -1.10497558 -0.08920531
v 2.23112988 -1.16905522 -0.11709688
v 2.19433164 -1.15014886 -0.07731594
v 2.19921517 -1.17140376 -0.11128987
v 2.25198721 -1.14315581 -0.09261922
v 2.25639128 -1.16426837 -0.12502473
v 2.24455046 -1.09026634 -0.03650384
v 2.22210931 -1.12293219 -0.05359219
v 2.24787831 -1.11842799 -0.06311795
v 2.18586683 -1.09720075 -0.01890949
v 2.18970561 -1.1253817 -0.04654593
v 2.14389419 -1.06341481 0.00616323
v 2.13778615 -0.99258482 0.04699644
v 2.13422346 -0.91095417 0.07662913
v 2.13407015 -0.82252061 0.09495356
v 2.13923835 -0.73028922 0.10158954
v 2.14838838 -0.63710516 0.09543202
v 2.16025018 -0.54681831 0.07591661
v 2.17235612 -0.46362355 0.04305864
v 2.17281436 -0.86647731 0.08625844
v 2.20673823 -0.81947803 0.08474423
v 2.17527174 -0.77515393 0.09877391
v 2.17325496 -0.82125341 0.09399592
v 2.17474389 -0.95318663 0.06247533
v 2.206918 -0.90830725 0.06677575
v 2.17340469 -0.91064107 0.07577186
v 2.23502421 -0.94739586 0.04212407
v 2.25469541 -0.90223139 0.04032995
v 2.23333668 -0.86199992 0.06510221
v 2.23385787 -0.90545272 0.05494977
v 2.25467681 -0.81572127 0.05779782
v 2.23556232 -0.77250486 0.07737562
v 2.23373103 -0.81760793 0.07267744
v 2.17936658 -1.03118574 0.0273455
v 2.21008205 -0.99087464 0.03782272
v 2.1767652 -0.99351245 0.04630796
v 2.21535229 -1.0631175 -0.00220212
v 2.18243956 -1.06577253 0.00566366
v 2.2617464 -1.05351018 -0.02589797
v 2.23900127 -1.02452313 0.00821694
v 2.24162054 -1.05891621 -0.01275977
v 2.2573173 -0.98279112 0.01250892
v 2.23676943 -0.98721784 0.02652901
v 2.27411007 -1.01391482 -0.02155069
v 2.28284287 -0.9725812 -0.02331694
v 2.27087163 -0.93933874 0.01067925
v 2.27227783 -0.97783279 -0.00415544
v 2.28645038 -1.04040932 -0.05943799
v 2.2762885 -1.04723167 -0.04150541
v 2.29166126 -1.00164127 -0.06096649
v 2.29344034 -1.03337228 -0.0795516
v 2.28914403 -0.93057841 -0.03105636
v 2.29021048 -0.96727407 -0.04482845
v 2.26962208 -0.85677737 0.03273725
v 2.28111648 -0.81218296 0.01970162
v 2.2718625 -0.77035647 0.04472658
v 2.27008771 -0.81388276 0.04010764
v 2.28084301 -0.89527541 0.00294368
v 2.26996588 -0.89878529 0.0229523
v 2.28836059 -0.85171812 -0.01033575
v 2.2885096 -0.89186108 -0.01956908
v 2.29067969 -0.76910924 0.00112634
v 2.28892898 -0.81070995 -0.00332553
v 2.21148371 -0.72775083 0.09102745
v 2.18211913 -0.68195366 0.09870427
v 2.17826724 -0.72858929 0.100382
v 2.25911545 -0.72675401 0.06397762
v 2.24181771 -0.6818152 0.077141
v 2.23829078 -0.72712785 0.07889685
v 2.26710414 -0.63803112 0.05718801
v 2.25186824 -0.59245252 0.06354134
v 2.2200725 -0.63593739 0.08414531
v 2.24655556 -0.63677096 0.0720079
v 2.19296789 -0.58981245 0.0851778
v 2.18723988 -0.63550114 0.09362481
v 2.28541016 -0.72684735 0.02580351
v 2.27775359 -0.68305575 0.04460137
v 2.27444481 -0.72665077 0.04625718
v 2.29627227 -0.68575388 0.00122425
v 2.29315137 -0.72737145 0.00268464
v 2.30505871 -0.60367208 -0.01115556
v 2.29292655 -0.64186203 0.01946061
v 2.30042934 -0.64439326 -0.00337991
v 2.28715586 -0.59708786 0.0314487
v 2.28219199 -0.63973432 0.03966109
v 2.30269861 -0.5594154 0.00020558
v 2.29748988 -0.51522618 0.00527566
v 2.27756643 -0.5520305 0.03717289
v 2.29230499 -0.5554409 0.01997653
v 2.31465363 -0.5254957 -0.03624264
v 2.30984687 -0.56389963 -0.02213041
v 2.32392334 -0.45433229 -0.07381513
v 2.31260991 -0.48253798 -0.03181009
v 2.31937146 -0.48887294 -0.05343049
v 2.30751586 -0.44072523 -0.03392513
v 2.28822493 -0.47194984 0.00413011
v 2.30258917 -0.47687032 -0.01262285
v 2.23131275 -0.54703486 0.06384828
v 2.20491147 -0.50266462 0.05830162
v 2.19891619 -0.54538774 0.07339742
v 2.262959 -0.50756102 0.03675025
v 2.25739026 -0.54923695 0.05178513
v 2.27374625 -0.43050295 -0.00342494
v 2.24278044 -0.46456998 0.03036281
v 2.26844191 -0.46785464 0.0184477
v 2.21651172 -0.42407688 0.01788267
v 2.21081495 -0.46207284 0.03990838
v 2.1836493 -0.39145565 -0.0043326
v 2.19341063 -0.33360555 -0.06527169
v 2.20121908 -0.29163444 -0.13547328
v 2.20707154 -0.26619046 -0.21190166
v 2.25350618 -0.39192616 -0.01758587
v 2.22693729 -0.35764947 -0.03747563
v 2.22191357 -0.3891372 -0.00811057
v 2.29820323 -0.40097865 -0.04290624
v 2.28349185 -0.36449313 -0.05809218
v 2.27879166 -0.39588922 -0.0291701
v 2.30684495 -0.34251755 -0.10202736
v 2.29157996 -0.3130148 -0.12277092
v 2.26280736 -0.33256208 -0.07872304
v 2.28776836 -0.33679345 -0.08949559
v 2.23559212 -0.30637887 -0.10397855
v 2.2315123 -0.33000817 -0.06961679
v 2.32185745 -0.41424644 -0.07702165
v 2.31655597 -0.37658849 -0.08658932
v 2.31220126 -0.40713974 -0.05883728
v 2.33231806 -0.43072792 -0.12008711
v 2.33225345 -0.39280548 -0.12367912
v 2.3282473 -0.42217204 -0.09751778
v 2.33960413 -0.37634125 -0.17218756
v 2.33902096 -0.34390524 -0.17979824
v 2.32981824 -0.35765832 -0.13282345
v 2.33586859 -0.36664319 -0.15143986
v 2.32399272 -0.32624459 -0.14756551
v 2.32050323 -0.34954428 -0.11641129
v 2.3360188 -0.31549048 -0.19257494
v 2.32964944 -0.291785 -0.21125301
v 2.31372809 -0.29942956 -0.16766178
v 2.32705259 -0.30691734 -0.17931425
v 2.34511613 -0.33469358 -0.22537936
v 2.34389352 -0.30960223 -0.234383
v 2.3417139 -0.32480245 -0.20775251
v 2.34838533 -0.30736881 -0.2702617
v 2.34671258 -0.29294994 -0.28235924
v 2.34030127 -0.28966534 -0.25058296
v 2.34548974 -0.29856878 -0.25876998
v 2.33342504 -0.27527046 -0.27472779
v 2.31876397 -0.27335244 -0.23582199
v 2.33174753 -0.28106719 -0.24297724
v 2.27027344 -0.28909027 -0.14813135
v 2.24233436 -0.27171543 -0.17745366
v 2.23920559 -0.28691926 -0.14000544
v 2.29787325 -0.27801886 -0.19281277
v 2.29496002 -0.29337328 -0.1573088
v 2.30224943 -0.26099932 -0.26561412
v 2.27583861 -0.26277548 -0.2224217
v 2.300287 -0.26709854 -0.22898633
v 2.24709248 -0.25470495 -0.25546893
v 2.24494695 -0.26085162 -0.21607938
v 2.25313687 -0.31829255 -0.49095997
v 2.28373146 -0.34680533 -0.5246694
v 2.25327754 -0.34462484 -0.52623176
v 2.25218582 -0.27888509 -0.41480323
v 2.28328681 -0.29862096 -0.45341527
v 2.25277948 -0.29636573 -0.45360848
v 2.30679774 -0.28580349 -0.41442531
v 2.32532978 -0.31008979 -0.44711971
v 2.30761694 -0.32506084 -0.48692914
v 2.30731344 -0.30327034 -0.45126569
v 2.32571649 -0.35743531 -0.51449734
v 2.30772185 -0.35112065 -0.52075004
v 2.25022864 -0.257454 -0.33515632
v 2.28194522 -0.26802909 -0.37682738
v 2.25134086 -0.26589024 -0.3751702
v 2.27956938 -0.25560453 -0.29918158
v 2.24883127 -0.25364926 -0.29520857
v 2.3220613 -0.26669049 -0.3050279
v 2.30507016 -0.2641108 -0.33962184
v 2.30382084 -0.26010513 -0.3024806
v 2.32414603 -0.27960678 -0.37580341
v 2.30605578 -0.27271372 -0.3770737
v 2.33583569 -0.27943798 -0.33936244
v 2.34475398 -0.29869017 -0.3680548
v 2.3373394 -0.30155766 -0.40692418
v 2.33668851 -0.2883712 -0.37291064
v 2.34298586 -0.28418359 -0.30735966
v 2.33476519 -0.27489978 -0.30674552
v 2.34990882 -0.30443683 -0.3011668
v 2.34867405 -0.30024281 -0.33245179
v 2.34777069 -0.2939935 -0.30659648
v 2.35149979 -0.32294166 -0.35030472
v 2.34997439 -0.3239333 -0.39097654
v 2.34940528 -0.31024867 -0.36089527
v 2.33807802 -0.34022265 -0.47419303
v 2.34617471 -0.37543079 -0.49497735
v 2.33817648 -0.3656151 -0.50593519
v 2.34580135 -0.32931533 -0.43253889
v 2.33780121 -0.31885564 -0.44093722
v 2.35246348 -0.3543204 -0.40796983
v 2.3506639 -0.36211946 -0.4522497
v 2.35039591 -0.34121778 -0.42174533
v 2.35286617 -0.3989599 -0.46519082
v 2.35077714 -0.38665455 -0.48153781
v 2.3489902 -0.32877829 -0.26865154
v 2.35104203 -0.32492604 -0.30989205
v 2.35007834 -0.31565102 -0.28778147
v 2.34482502 -0.36429277 -0.22102399
v 2.34844088 -0.35625869 -0.2690953
v 2.34719896 -0.345005 -0.24598783
v 2.34715318 -0.38814196 -0.27022278
v 2.34995818 -0.383459 -0.32055807
v 2.35090279 -0.35189294 -0.31620782
v 2.34931969 -0.36897659 -0.2942191
v 2.35231804 -0.35113921 -0.36244368
v 2.35176897 -0.33669865 -0.33515596
v 2.33866691 -0.41178789 -0.16908615
v 2.3434515 -0.39760708 -0.21947576
v 2.34196901 -0.38659703 -0.19499361
v 2.33682799 -0.44916501 -0.17035013
v 2.33501172 -0.43972727 -0.14449106
v 2.33944845 -0.46930432 -0.22455994
v 2.34153366 -0.43321785 -0.22053079
v 2.33825826 -0.45903793 -0.19728483
v 2.34536099 -0.42266395 -0.27160218
v 2.34453511 -0.40956956 -0.24525171
v 2.34337663 -0.45779642 -0.27355754
v 2.34662723 -0.45305499 -0.3228181
v 2.3484683 -0.41779303 -0.32284206
v 2.34606623 -0.43707019 -0.29780787
v 2.34148025 -0.49083098 -0.27658391
v 2.34053635 -0.47992423 -0.25144025
v 2.34458088 -0.48656699 -0.32058167
v 2.34220838 -0.50196152 -0.29864919
v 2.3492484 -0.4553253 -0.37198889
v 2.3470056 -0.47088697 -0.34558209
v 2.35195422 -0.38359022 -0.37023264
v 2.35306096 -0.38867205 -0.41866138
v 2.3527522 -0.36841705 -0.39062559
v 2.35088443 -0.41886115 -0.37349814
v 2.35048246 -0.40000522 -0.3473109
v 2.35251665 -0.42582368 -0.42299473
v 2.35115051 -0.44027426 -0.39814025
v 2.3532319 -0.41204485 -0.44551068
# The following MRGB block contains ZBrush Vertex Color (Polypaint) and masking output as 4 hexadecimal values per vertex. The vertex color format is MMRRGGBB with up to 64 entries per MRGB line.
#MRGB ffffffffffffffffffffffffffffffffffffffffffffffffffffffffffffffffffffffffffffffffffffffffffffffffffffffffffffffffffffffffffffffffffffffffffffffffffffffffffffffffffffffffffffffffffffffffffffffffffffffffffffffffffffffffffffffffffffffffffffffffffffffffffffffffffffffffffffffffffffffffffffffffffffffffffffffffffffffffffffffffffffffffffffffffffffffffffffffffffffffffffffffffffffffffffffffffffffffffffffffffffffffffffffffffffffffffffffffffffffffffffffffffffffffffffffffffffffffffffffffffffffffffffffffffffffffffffffffff
#MRGB ffffffffffffffffffffffffffffffffffffffffffffffffffffffffffffffffffffffffffffffffffffffffffffffffffffffffffffffffffffffffffffffffffffffffffffffffffffffffffffffffffffffffffffffffffffffffffffffffffffffffffffffffffffffffffffffffffffffffffffffffffffffffffffffffffffffffffffffffffffffffffffffffffffffffffffffffffffffffffffffffffffffffffffffffffffffffffffffffffffffffffffffffffffffffffffffffffffffffffffffffffffffffffffffffffffffffffffffffffffffffffffffffffffffffffffffffffffffffffffffffffffffffffffffffffffffffffffffff
#MRGB ffffffffffffffffffffffffffffffffffffffffffffffffffffffffffffffffffffffffffffffffffffffffffffffffffffffffffffffffffffffffffffffffffffffffffffffffffffffffffffffffffffffffffffffffffffffffffffffffffffffffffffffffffffffffffffffffffffffffffffffffffffffffffffffffffffffffffffffffffffffffffffffffffffffffffffffffffffffffffffffffffffffffffffffffffffffffffffffffffffffffffffffffffffffffffffffffffffffffffffffffffffffffffffffffffffffffffffffffffffffffffffffffffffffffffffffffffffffffffffffffffffffffffffffffffffffffffffffff
#MRGB ffffffffffffffffffffffffffffffffffffffffffffffffffffffffffffffffffffffffffffffffffffffffffffffffffffffffffffffffffffffffffffffffffffffffffffffffffffffffffffffffffffffffffffffffffffffffffffffffffffffffffffffffffffffffffffffffffffffffffffffffffffffffffffffffffffffffffffffffffffffffffffffffffffffffffffffffffffffffffffffffffffffffffffffffffffffffffffffffffffffffffffffffffffffffffffffffffffffffffffffffffffffffffffffffffffffffffffffffffffffffffffffffffffffffffffffffffffffffffffffffffffffffffffffffffffffffffffffff
#MRGB ffffffffffffffffffffffffffffffffffffffffffffffffffffffffffffffffffffffffffffffffffffffffffffffffffffffffffffffffffffffffffffffffffffffffffffffffffffffffffffffffffffffffffffffffffffffffffffffffffffffffffffffffffffffffffffffffffffffffffffffffffffffffffffffffffffffffffffffffffffffffffffffffffffffffffffffffffffffffffffffffffffffffffffffffffffffffffffffffffffffffffffffffffffffffffffffffffffffffffffffffffffffffffffffffffffffffffffffffffffffffffffffffffffffffffffffffffffffffffffffffffffffffffffffffffffffffffffffff
#MRGB ffffffffffffffffffffffffffffffffffffffffffffffffffffffffffffffffffffffffffffffffffffffffffffffffffffffffffffffffffffffffffffffffffffffffffffffffffffffffffffffffffffffffffffffffffffffffffffffffffffffffffffffffffffffffffffffffffffffffffffffffffffffffffffffffffffffffffffffffffffffffffffffffffffffffffffffffffffffffffffffffffffffffffffffffffffffffffffffffffffffffffffffffffffffffffffffffffffffffffffffffffffffffffffffffffffffffffffffffffffffffffffffffffffffffffffffffffffffffffffffffffffffffffffffffffffffffffffffff
#MRGB ffffffffffffffffffffffffffffffffffffffffffffffffffffffffffffffffffffffffffffffffffffffffffffffffffffffffffffffffffffffffffffffffffffffffffffffffffffffffffffffffffffffffffffffffffffffffffffffffffffffffffffffffffffffffffffffffffffffffffffffffffffffffffffffffffffffffffffffffffffffffffffffffffffffffffffffffffffffffffffffffffffffffffffffffffffffffffffffffffffffffffffffffffffffffffffffffffffffffffffffffffffffffffffffffffffffffffffffffffffffffffffffffffffffffffffffffffffffffffffffffffffffffffffffffffffffffffffffff
#MRGB ffffffffffffffffffffffffffffffffffffffffffffffffffffffffffffffffffffffffffffffffffffffffffffffffffffffffffffffffffffffffffffffffffffffffffffffffffffffffffffffffffffffffffffffffffffffffffffffffffffffffffffffffffffffffffffffffffffffffffffffffffffffffffffffffffffffffffffffffffffffffffffffffffffffffffffffffffffffffffffffffffffffffffffffffffffffffffffffffffffffffffffffffffffffffffffffffffffffffffffffffffffffffffffffffffffffffffffffffffffffffffffffffffffffffffffffffffffffffffffffffffffffffffffffffffffffffffffffff
#MRGB ffffffffffffffffffffffffffffffffffffffffffffffffffffffffffffffffffffffffffffffffffffffffffffffffffffffffffffffffffffffffffffffffffffffffffffffffffffffffffffffffffffffffffffffffffffffffffffffffffffffffffffffffffffffffffffffffffffffffffffffffffffffffffffffffffffffffffffffffffffffffffffffffffffffffffffffffffffffffffffffffffffffffffffffffffffffffffffffffffffffffffffffffffffffffffffffffffffffffffffffffffffffffffffffffffffffffffffffffffffffffffffffffffffffffffffffffffffffffffffffffffffffffffffffffffffffffffffffff
#MRGB ffffffffffffffffffffffffffffffffffffffffffffffffffffffffffffffffffffffffffffffffffffffffffffffffffffffffffffffffffffffffffffffffffffffffffffffffffffffffffffffffffffffffffffffffffffffffffffffffffffffffffffffffffffffffffffffffffffffffffffffffffffffffffffffffffffffffffffffffffffffffffffffffffffffffffffffffffffffffffffffffffffffffffffffffffffffffffffffffffffffffffffffffffffffffffffffffffffffffffffffffffffffffffffffffffffffffffffffffffffffffffffffffffffffffffffffffffffffffffffffffffffffffffffffffffffffffffffffff
#MRGB ffffffffffffffffffffffffffffffffffffffffffffffffffffffffffffffffffffffffffffffffffffffffffffffffffffffffffffffffffffffffffffffffffffffffffffffffffffffffffffffffffffffffffffffffffffffffffffffffffffffffffffffffffffffffffffffffffffffffffffffffffffffffffffffffffffffffffffffffffffffffffffffffffffffffffffffffffffffffffffffffffffffffffffffffffffffffffffffffffffffffffffffffffffffffffffffffffffffffffffffffffffffffffffffffffffffffffffffffffffffffffffffffffffffffffffffffffffffffffffffffffffffffffffffffffffffffffffffff
#MRGB ffffffffffffffffffffffffffffffffffffffffffffffffffffffffffffffffffffffffffffffffffffffffffffffffffffffffffffffffffffffffffffffffffffffffffffffffffffffffffffffffffffffffffffffffffffffffffffffffffffffffffffffffffffffffffffffffffffffffffffffffffffffffffffffffffffffffffffffffffffffffffffffffffffffffffffffffffffffffffffffffffffffffffffffffffffffffffffffffffffffffffffffffffffffffffffffffffffffffffffffffffffffffffffffffffffffffffffffffffffffffffffffffffffffffffffffffffffffffffffffffffffffffffffffffffffffffffffffff
#MRGB ffffffffffffffffffffffffffffffffffffffffffffffffffffffffffffffffffffffffffffffffffffffffffffffffffffffffffffffffffffffffffffffffffffffffffffffffffffffffffffffffffffffffffffffffffffffffffffffffffffffffffffffffffffffffffffffffffffffffffffffffffffffffffffffffffffffffffffffffffffffffffffffffffffffffffffffffffffffffffffffffffffffffffffffffffffffffffffffffffffffffffffffffffffffffffffffffffffffffffffffffffffffffffffffffffffffffffffffffffffffffffffffffffffffffffffffffffffffffffffffffffffffffffffffffffffffffffffffff
#MRGB ffffffffffffffffffffffffffffffffffffffffffffffffffffffffffffffffffffffffffffffffffffffffffffffffffffffffffffffffffffffffffffffffffffffffffffffffffffffffffffffffffffffffffffffffffffffffffffffffffffffffffffffffffffffffffffffffffffffffffffffffffffffffffffffffffffffffffffffffffffffffffffffffffffffffffffffffffffffffffffffffffffffffffffffffffffffffffffffffffffffffffffffffffffffffffffffffffffffffffffffffffffffffffffffffffffffffffffffffffffffffffffffffffffffffffffffffffffffffffffffffffffffffffffffffffffffffffffffff
#MRGB ffffffffffffffffffffffffffffffffffffffffffffffffffffffffffffffffffffffffffffffffffffffffffffffffffffffffffffffffffffffffffffffffffffffffffffffffffffffffffffffffffffffffffffffffffffffffffffffffffffffffffffffffffffffffffffffffffffffffffffffffffffffffffffffffffffffff
# End of MRGB block 
g Group3306
f 1 242 246 245
f 242 66 243 246
f 246 243 70 244
f 245 246 244 69
f 66 247 250 243
f 247 20 248 250
f 250 248 67 249
f 243 250 249 70
f 70 249 254 253
f 249 67 251 254
f 254 251 24 252
f 253 254 252 68
f 69 244 257 256
f 244 70 253 257
f 257 253 68 255
f 256 257 255 23
f 20 258 261 248
f 258 71 259 261
f 261 259 74 260
f 248 261 260 67
f 71 262 265 259
f 262 3 263 265
f 265 263 72 264
f 259 265 264 74
f 74 264 269 268
f 264 72 266 269
f 269 266 21 267
f 268 269 267 73
f 67 260 271 251
f 260 74 268 271
f 271 268 73 270
f 251 271 270 24
f 24 270 275 274
f 270 73 272 275
f 275 272 78 273
f 274 275 273 77
f 73 267 278 272
f 267 21 276 278
f 278 276 75 277
f 272 278 277 78
f 78 277 282 281
f 277 75 279 282
f 282 279 4 280
f 281 282 280 76
f 77 273 285 284
f 273 78 281 285
f 285 281 76 283
f 284 285 283 22
f 23 255 289 288
f 255 68 286 289
f 289 286 81 287
f 288 289 287 80
f 68 252 291 286
f 252 24 274 291
f 291 274 77 290
f 286 291 290 81
f 81 290 294 293
f 290 77 284 294
f 294 284 22 292
f 293 294 292 79
f 80 287 297 296
f 287 81 293 297
f 297 293 79 295
f 296 297 295 5
f 1 245 301 300
f 245 69 298 301
f 301 298 85 299
f 300 301 299 84
f 69 256 304 298
f 256 23 302 304
f 304 302 82 303
f 298 304 303 85
f 85 303 308 307
f 303 82 305 308
f 308 305 28 306
f 307 308 306 83
f 84 299 311 310
f 299 85 307 311
f 311 307 83 309
f 310 311 309 27
f 23 288 314 302
f 288 80 312 314
f 314 312 88 313
f 302 314 313 82
f 80 296 317 312
f 296 5 315 317
f 317 315 86 316
f 312 317 316 88
f 88 316 321 320
f 316 86 318 321
f 321 318 25 319
f 320 321 319 87
f 82 313 323 305
f 313 88 320 323
f 323 320 87 322
f 305 323 322 28
f 28 322 327 326
f 322 87 324 327
f 327 324 92 325
f 326 327 325 91
f 87 319 330 324
f 319 25 328 330
f 330 328 89 329
f 324 330 329 92
f 92 329 334 333
f 329 89 331 334
f 334 331 6 332
f 333 334 332 90
f 91 325 337 336
f 325 92 333 337
f 337 333 90 335
f 336 337 335 26
f 27 309 341 340
f 309 83 338 341
f 341 338 95 339
f 340 341 339 94
f 83 306 343 338
f 306 28 326 343
f 343 326 91 342
f 338 343 342 95
f 95 342 346 345
f 342 91 336 346
f 346 336 26 344
f 345 346 344 93
f 94 339 349 348
f 339 95 345 349
f 349 345 93 347
f 348 349 347 7
f 8 350 354 353
f 350 96 351 354
f 354 351 100 352
f 353 354 352 99
f 96 355 358 351
f 355 29 356 358
f 358 356 97 357
f 351 358 357 100
f 100 357 362 361
f 357 97 359 362
f 362 359 33 360
f 361 362 360 98
f 99 352 365 364
f 352 100 361 365
f 365 361 98 363
f 364 365 363 32
f 29 366 369 356
f 366 101 367 369
f 369 367 104 368
f 356 369 368 97
f 101 370 373 367
f 370 9 371 373
f 373 371 102 372
f 367 373 372 104
f 104 372 377 376
f 372 102 374 377
f 377 374 30 375
f 376 377 375 103
f 97 368 379 359
f 368 104 376 379
f 379 376 103 378
f 359 379 378 33
f 33 378 383 382
f 378 103 380 383
f 383 380 108 381
f 382 383 381 107
f 103 375 386 380
f 375 30 384 386
f 386 384 105 385
f 380 386 385 108
f 108 385 390 389
f 385 105 387 390
f 390 387 2 388
f 389 390 388 106
f 107 381 393 392
f 381 108 389 393
f 393 389 106 391
f 392 393 391 31
f 32 363 397 396
f 363 98 394 397
f 397 394 111 395
f 396 397 395 110
f 98 360 399 394
f 360 33 382 399
f 399 382 107 398
f 394 399 398 111
f 111 398 402 401
f 398 107 392 402
f 402 392 31 400
f 401 402 400 109
f 110 395 405 404
f 395 111 401 405
f 405 401 109 403
f 404 405 403 10
f 2 406 409 388
f 406 112 407 409
f 409 407 115 408
f 388 409 408 106
f 112 410 413 407
f 410 34 411 413
f 413 411 113 412
f 407 413 412 115
f 115 412 417 416
f 412 113 414 417
f 417 414 36 415
f 416 417 415 114
f 106 408 419 391
f 408 115 416 419
f 419 416 114 418
f 391 419 418 31
f 34 420 423 411
f 420 116 421 423
f 423 421 118 422
f 411 423 422 113
f 116 424 426 421
f 424 5 295 426
f 426 295 79 425
f 421 426 425 118
f 118 425 429 428
f 425 79 292 429
f 429 292 22 427
f 428 429 427 117
f 113 422 431 414
f 422 118 428 431
f 431 428 117 430
f 414 431 430 36
f 36 430 435 434
f 430 117 432 435
f 435 432 121 433
f 434 435 433 120
f 117 427 437 432
f 427 22 283 437
f 437 283 76 436
f 432 437 436 121
f 121 436 440 439
f 436 76 280 440
f 440 280 4 438
f 439 440 438 119
f 120 433 443 442
f 433 121 439 443
f 443 439 119 441
f 442 443 441 35
f 31 418 446 400
f 418 114 444 446
f 446 444 123 445
f 400 446 445 109
f 114 415 448 444
f 415 36 434 448
f 448 434 120 447
f 444 448 447 123
f 123 447 451 450
f 447 120 442 451
f 451 442 35 449
f 450 451 449 122
f 109 445 453 403
f 445 123 450 453
f 453 450 122 452
f 403 453 452 10
f 2 387 456 406
f 387 105 454 456
f 456 454 126 455
f 406 456 455 112
f 105 384 459 454
f 384 30 457 459
f 459 457 124 458
f 454 459 458 126
f 126 458 463 462
f 458 124 460 463
f 463 460 38 461
f 462 463 461 125
f 112 455 465 410
f 455 126 462 465
f 465 462 125 464
f 410 465 464 34
f 30 374 468 457
f 374 102 466 468
f 468 466 129 467
f 457 468 467 124
f 102 371 471 466
f 371 9 469 471
f 471 469 127 470
f 466 471 470 129
f 129 470 475 474
f 470 127 472 475
f 475 472 37 473
f 474 475 473 128
f 124 467 477 460
f 467 129 474 477
f 477 474 128 476
f 460 477 476 38
f 38 476 481 480
f 476 128 478 481
f 481 478 132 479
f 480 481 479 131
f 128 473 484 478
f 473 37 482 484
f 484 482 130 483
f 478 484 483 132
f 132 483 487 486
f 483 130 485 487
f 487 485 6 331
f 486 487 331 89
f 131 479 489 488
f 479 132 486 489
f 489 486 89 328
f 488 489 328 25
f 34 464 492 420
f 464 125 490 492
f 492 490 133 491
f 420 492 491 116
f 125 461 494 490
f 461 38 480 494
f 494 480 131 493
f 490 494 493 133
f 133 493 496 495
f 493 131 488 496
f 496 488 25 318
f 495 496 318 86
f 116 491 497 424
f 491 133 495 497
f 497 495 86 315
f 424 497 315 5
f 13 505 513 512
f 505 137 510 513
f 513 510 143 511
f 512 513 511 142
f 137 504 516 510
f 504 40 514 516
f 516 514 140 515
f 510 516 515 143
f 143 515 520 519
f 515 140 517 520
f 520 517 44 518
f 519 520 518 141
f 142 511 523 522
f 511 143 519 523
f 523 519 141 521
f 522 523 521 43
f 40 503 526 514
f 503 136 524 526
f 526 524 146 525
f 514 526 525 140
f 136 502 529 524
f 502 12 527 529
f 529 527 144 528
f 524 529 528 146
f 146 528 533 532
f 528 144 530 533
f 533 530 42 531
f 532 533 531 145
f 140 525 535 517
f 525 146 532 535
f 535 532 145 534
f 517 535 534 44
f 44 534 539 538
f 534 145 536 539
f 539 536 149 537
f 538 539 537 148
f 145 531 542 536
f 531 42 540 542
f 542 540 147 541
f 536 542 541 149
f 149 541 545 544
f 541 147 543 545
f 545 543 7 347
f 544 545 347 93
f 148 537 547 546
f 537 149 544 547
f 547 544 93 344
f 546 547 344 26
f 43 521 551 550
f 521 141 548 551
f 551 548 151 549
f 550 551 549 150
f 141 518 553 548
f 518 44 538 553
f 553 538 148 552
f 548 553 552 151
f 151 552 555 554
f 552 148 546 555
f 555 546 26 335
f 554 555 335 90
f 150 549 557 556
f 549 151 554 557
f 557 554 90 332
f 556 557 332 6
f 13 512 560 506
f 512 142 558 560
f 560 558 154 559
f 506 560 559 138
f 142 522 563 558
f 522 43 561 563
f 563 561 152 562
f 558 563 562 154
f 154 562 567 566
f 562 152 564 567
f 567 564 46 565
f 566 567 565 153
f 138 559 569 507
f 559 154 566 569
f 569 566 153 568
f 507 569 568 41
f 43 550 572 561
f 550 150 570 572
f 572 570 156 571
f 561 572 571 152
f 150 556 574 570
f 556 6 485 574
f 574 485 130 573
f 570 574 573 156
f 156 573 577 576
f 573 130 482 577
f 577 482 37 575
f 576 577 575 155
f 152 571 579 564
f 571 156 576 579
f 579 576 155 578
f 564 579 578 46
f 46 578 583 582
f 578 155 580 583
f 583 580 159 581
f 582 583 581 158
f 155 575 585 580
f 575 37 472 585
f 585 472 127 584
f 580 585 584 159
f 159 584 588 587
f 584 127 469 588
f 588 469 9 586
f 587 588 586 157
f 158 581 591 590
f 581 159 587 591
f 591 587 157 589
f 590 591 589 45
f 41 568 594 508
f 568 153 592 594
f 594 592 161 593
f 508 594 593 139
f 153 565 596 592
f 565 46 582 596
f 596 582 158 595
f 592 596 595 161
f 161 595 599 598
f 595 158 590 599
f 599 590 45 597
f 598 599 597 160
f 139 593 601 509
f 593 161 598 601
f 601 598 160 600
f 509 601 600 14
f 15 605 613 612
f 605 163 610 613
f 613 610 169 611
f 612 613 611 168
f 163 604 616 610
f 604 47 614 616
f 616 614 166 615
f 610 616 615 169
f 169 615 620 619
f 615 166 617 620
f 620 617 50 618
f 619 620 618 167
f 168 611 623 622
f 611 169 619 623
f 623 619 167 621
f 622 623 621 49
f 47 603 626 614
f 603 162 624 626
f 626 624 171 625
f 614 626 625 166
f 162 602 628 624
f 602 14 600 628
f 628 600 160 627
f 624 628 627 171
f 171 627 631 630
f 627 160 597 631
f 631 597 45 629
f 630 631 629 170
f 166 625 633 617
f 625 171 630 633
f 633 630 170 632
f 617 633 632 50
f 50 632 637 636
f 632 170 634 637
f 637 634 173 635
f 636 637 635 172
f 170 629 639 634
f 629 45 589 639
f 639 589 157 638
f 634 639 638 173
f 173 638 641 640
f 638 157 586 641
f 641 586 9 370
f 640 641 370 101
f 172 635 643 642
f 635 173 640 643
f 643 640 101 366
f 642 643 366 29
f 49 621 647 646
f 621 167 644 647
f 647 644 175 645
f 646 647 645 174
f 167 618 649 644
f 618 50 636 649
f 649 636 172 648
f 644 649 648 175
f 175 648 651 650
f 648 172 642 651
f 651 642 29 355
f 650 651 355 96
f 174 645 653 652
f 645 175 650 653
f 653 650 96 350
f 652 653 350 8
f 15 612 656 606
f 612 168 654 656
f 656 654 178 655
f 606 656 655 164
f 168 622 659 654
f 622 49 657 659
f 659 657 176 658
f 654 659 658 178
f 178 658 663 662
f 658 176 660 663
f 663 660 52 661
f 662 663 661 177
f 164 655 665 607
f 655 178 662 665
f 665 662 177 664
f 607 665 664 48
f 49 646 668 657
f 646 174 666 668
f 668 666 180 667
f 657 668 667 176
f 174 652 670 666
f 652 8 353 670
f 670 353 99 669
f 666 670 669 180
f 180 669 673 672
f 669 99 364 673
f 673 364 32 671
f 672 673 671 179
f 176 667 675 660
f 667 180 672 675
f 675 672 179 674
f 660 675 674 52
f 52 674 679 678
f 674 179 676 679
f 679 676 183 677
f 678 679 677 182
f 179 671 681 676
f 671 32 396 681
f 681 396 110 680
f 676 681 680 183
f 183 680 684 683
f 680 110 404 684
f 684 404 10 682
f 683 684 682 181
f 182 677 687 686
f 677 183 683 687
f 687 683 181 685
f 686 687 685 51
f 48 664 690 608
f 664 177 688 690
f 690 688 185 689
f 608 690 689 165
f 177 661 692 688
f 661 52 678 692
f 692 678 182 691
f 688 692 691 185
f 185 691 695 694
f 691 182 686 695
f 695 686 51 693
f 694 695 693 184
f 165 689 697 609
f 689 185 694 697
f 697 694 184 696
f 609 697 696 16
f 17 701 709 708
f 701 187 706 709
f 709 706 193 707
f 708 709 707 192
f 187 700 712 706
f 700 53 710 712
f 712 710 190 711
f 706 712 711 193
f 193 711 716 715
f 711 190 713 716
f 716 713 56 714
f 715 716 714 191
f 192 707 719 718
f 707 193 715 719
f 719 715 191 717
f 718 719 717 55
f 53 699 722 710
f 699 186 720 722
f 722 720 195 721
f 710 722 721 190
f 186 698 724 720
f 698 16 696 724
f 724 696 184 723
f 720 724 723 195
f 195 723 727 726
f 723 184 693 727
f 727 693 51 725
f 726 727 725 194
f 190 721 729 713
f 721 195 726 729
f 729 726 194 728
f 713 729 728 56
f 56 728 733 732
f 728 194 730 733
f 733 730 197 731
f 732 733 731 196
f 194 725 735 730
f 725 51 685 735
f 735 685 181 734
f 730 735 734 197
f 197 734 737 736
f 734 181 682 737
f 737 682 10 452
f 736 737 452 122
f 196 731 739 738
f 731 197 736 739
f 739 736 122 449
f 738 739 449 35
f 55 717 743 742
f 717 191 740 743
f 743 740 199 741
f 742 743 741 198
f 191 714 745 740
f 714 56 732 745
f 745 732 196 744
f 740 745 744 199
f 199 744 747 746
f 744 196 738 747
f 747 738 35 441
f 746 747 441 119
f 198 741 749 748
f 741 199 746 749
f 749 746 119 438
f 748 749 438 4
f 17 708 752 702
f 708 192 750 752
f 752 750 202 751
f 702 752 751 188
f 192 718 755 750
f 718 55 753 755
f 755 753 200 754
f 750 755 754 202
f 202 754 759 758
f 754 200 756 759
f 759 756 58 757
f 758 759 757 201
f 188 751 761 703
f 751 202 758 761
f 761 758 201 760
f 703 761 760 54
f 55 742 764 753
f 742 198 762 764
f 764 762 204 763
f 753 764 763 200
f 198 748 766 762
f 748 4 279 766
f 766 279 75 765
f 762 766 765 204
f 204 765 769 768
f 765 75 276 769
f 769 276 21 767
f 768 769 767 203
f 200 763 771 756
f 763 204 768 771
f 771 768 203 770
f 756 771 770 58
f 58 770 775 774
f 770 203 772 775
f 775 772 207 773
f 774 775 773 206
f 203 767 777 772
f 767 21 266 777
f 777 266 72 776
f 772 777 776 207
f 207 776 780 779
f 776 72 263 780
f 780 263 3 778
f 779 780 778 205
f 206 773 783 782
f 773 207 779 783
f 783 779 205 781
f 782 783 781 57
f 54 760 786 704
f 760 201 784 786
f 786 784 209 785
f 704 786 785 189
f 201 757 788 784
f 757 58 774 788
f 788 774 206 787
f 784 788 787 209
f 209 787 791 790
f 787 206 782 791
f 791 782 57 789
f 790 791 789 208
f 189 785 793 705
f 785 209 790 793
f 793 790 208 792
f 705 793 792 18
f 18 792 800 794
f 792 208 798 800
f 800 798 214 799
f 794 800 799 210
f 208 789 803 798
f 789 57 801 803
f 803 801 212 802
f 798 803 802 214
f 214 802 807 806
f 802 212 804 807
f 807 804 62 805
f 806 807 805 213
f 210 799 809 795
f 799 214 806 809
f 809 806 213 808
f 795 809 808 59
f 57 781 812 801
f 781 205 810 812
f 812 810 217 811
f 801 812 811 212
f 205 778 815 810
f 778 3 813 815
f 815 813 215 814
f 810 815 814 217
f 217 814 819 818
f 814 215 816 819
f 819 816 60 817
f 818 819 817 216
f 212 811 821 804
f 811 217 818 821
f 821 818 216 820
f 804 821 820 62
f 62 820 825 824
f 820 216 822 825
f 825 822 221 823
f 824 825 823 220
f 216 817 828 822
f 817 60 826 828
f 828 826 218 827
f 822 828 827 221
f 221 827 832 831
f 827 218 829 832
f 832 829 19 830
f 831 832 830 219
f 220 823 835 834
f 823 221 831 835
f 835 831 219 833
f 834 835 833 61
f 59 808 838 796
f 808 213 836 838
f 838 836 223 837
f 796 838 837 211
f 213 805 840 836
f 805 62 824 840
f 840 824 220 839
f 836 840 839 223
f 223 839 843 842
f 839 220 834 843
f 843 834 61 841
f 842 843 841 222
f 211 837 845 797
f 837 223 842 845
f 845 842 222 844
f 797 845 844 11
f 12 501 848 527
f 501 135 846 848
f 848 846 226 847
f 527 848 847 144
f 135 500 851 846
f 500 39 849 851
f 851 849 224 850
f 846 851 850 226
f 226 850 855 854
f 850 224 852 855
f 855 852 64 853
f 854 855 853 225
f 144 847 857 530
f 847 226 854 857
f 857 854 225 856
f 530 857 856 42
f 39 499 860 849
f 499 134 858 860
f 860 858 228 859
f 849 860 859 224
f 134 498 862 858
f 498 11 844 862
f 862 844 222 861
f 858 862 861 228
f 228 861 865 864
f 861 222 841 865
f 865 841 61 863
f 864 865 863 227
f 224 859 867 852
f 859 228 864 867
f 867 864 227 866
f 852 867 866 64
f 64 866 871 870
f 866 227 868 871
f 871 868 231 869
f 870 871 869 230
f 227 863 873 868
f 863 61 833 873
f 873 833 219 872
f 868 873 872 231
f 231 872 876 875
f 872 219 830 876
f 876 830 19 874
f 875 876 874 229
f 230 869 879 878
f 869 231 875 879
f 879 875 229 877
f 878 879 877 63
f 42 856 882 540
f 856 225 880 882
f 882 880 233 881
f 540 882 881 147
f 225 853 884 880
f 853 64 870 884
f 884 870 230 883
f 880 884 883 233
f 233 883 887 886
f 883 230 878 887
f 887 878 63 885
f 886 887 885 232
f 147 881 889 543
f 881 233 886 889
f 889 886 232 888
f 543 889 888 7
f 19 829 892 874
f 829 218 890 892
f 892 890 236 891
f 874 892 891 229
f 218 826 895 890
f 826 60 893 895
f 895 893 234 894
f 890 895 894 236
f 236 894 899 898
f 894 234 896 899
f 899 896 65 897
f 898 899 897 235
f 229 891 901 877
f 891 236 898 901
f 901 898 235 900
f 877 901 900 63
f 60 816 904 893
f 816 215 902 904
f 904 902 238 903
f 893 904 903 234
f 215 813 906 902
f 813 3 262 906
f 906 262 71 905
f 902 906 905 238
f 238 905 909 908
f 905 71 258 909
f 909 258 20 907
f 908 909 907 237
f 234 903 911 896
f 903 238 908 911
f 911 908 237 910
f 896 911 910 65
f 65 910 915 914
f 910 237 912 915
f 915 912 240 913
f 914 915 913 239
f 237 907 917 912
f 907 20 247 917
f 917 247 66 916
f 912 917 916 240
f 240 916 919 918
f 916 66 242 919
f 919 242 1 300
f 918 919 300 84
f 239 913 921 920
f 913 240 918 921
f 921 918 84 310
f 920 921 310 27
f 63 900 924 885
f 900 235 922 924
f 924 922 241 923
f 885 924 923 232
f 235 897 926 922
f 897 65 914 926
f 926 914 239 925
f 922 926 925 241
f 241 925 928 927
f 925 239 920 928
f 928 920 27 340
f 927 928 340 94
f 232 923 929 888
f 923 241 927 929
f 929 927 94 348
f 888 929 348 7

 